<svg width="130" height="31" viewBox="0 0 130 31" fill="none" xmlns="http://www.w3.org/2000/svg">
<g clip-path="url(#clip0_300_1908)">
<path d="M8.59054 7.71028C8.24274 7.71028 7.96022 7.426 7.96022 7.07602V5.34166C7.96022 5.28671 7.94836 5.2676 7.94242 5.26043C7.91274 5.21624 7.89494 5.20549 7.89494 5.20549C7.85695 5.18638 7.82134 5.16249 7.78811 5.13621C7.77386 5.12426 7.6884 5.06454 7.44031 5.01318C7.23139 4.96182 7.05927 4.93315 6.90258 4.9212C6.73402 4.90926 6.61176 4.90209 6.53816 4.90209H6.23072C6.14882 4.90209 6.05742 4.92001 5.9577 4.95345C5.84494 4.99168 5.7203 5.02034 5.5921 5.03946C5.55055 5.07768 5.50189 5.1171 5.44728 5.16129C5.44491 8.58463 5.45203 11.9447 5.46627 15.2713C5.47933 18.617 5.48764 21.9973 5.48764 25.4123C5.48764 25.6034 5.54699 25.6631 5.56836 25.6846C5.71436 25.8315 5.80339 25.8722 5.83544 25.8829C5.85325 25.8889 5.86986 25.8948 5.88648 25.902C6.02655 25.9629 6.16544 26.0035 6.29957 26.0227C6.46101 26.0454 6.59751 26.0573 6.70435 26.0573C7.13643 26.0573 7.45099 25.9785 7.6148 25.8303C7.80116 25.6607 7.91868 25.4433 7.97447 25.1638C7.97803 25.1471 7.98159 25.1304 7.98634 25.1137C8.02551 24.9787 8.0445 24.8425 8.0445 24.7099V24.188C8.0172 24.016 8.00415 23.7986 8.00415 23.5119C8.00415 23.1607 8.28666 22.8776 8.63446 22.8776H12.8199C13.0087 22.8776 13.1879 22.9624 13.3066 23.1094C13.4265 23.2563 13.474 23.4498 13.4372 23.6361C13.4182 23.7317 13.4087 23.8356 13.4087 23.9443V24.4185C13.4087 26.4383 12.7748 28.0533 11.5249 29.219C10.288 30.3729 8.66651 30.9582 6.70553 30.9582C4.74456 30.9582 3.16581 30.398 1.91824 29.2931C0.644557 28.1691 0 26.5853 0 24.5857C0 21.4467 0.00593515 18.3351 0.0201795 15.2498C0.0332368 12.168 0.0415461 9.05764 0.0415461 5.91978C0.0415461 4.94509 0.221975 4.0803 0.576897 3.34929C0.930632 2.62186 1.43037 1.99357 2.06187 1.48233C2.6815 0.980657 3.40203 0.602011 4.20327 0.357146C4.98434 0.119447 5.82594 0 6.70435 0C7.58275 0 8.4754 0.127808 9.27308 0.381035C10.0862 0.63904 10.8138 1.03202 11.4358 1.55042C12.0673 2.07837 12.5659 2.73652 12.9185 3.50815C13.2698 4.27858 13.4479 5.17324 13.4479 6.16823V7.07722C13.4479 7.4272 13.1654 7.71148 12.8176 7.71148H8.58935L8.59054 7.71028Z" fill="#262D5A"/>
<path d="M43.6667 15.5651C43.6667 24.0756 36.7854 31 28.329 31C19.8726 31 12.9902 24.0756 12.9902 15.5651C12.9902 7.05448 19.8703 0.131348 28.3279 0.131348C36.7854 0.131348 43.6655 7.05567 43.6655 15.5651H43.6667ZM38.6242 15.5651C38.6242 9.85311 34.0054 5.20544 28.329 5.20544C22.6527 5.20544 18.0339 9.85311 18.0339 15.5651C18.0339 21.277 22.6527 25.9247 28.329 25.9247C34.0054 25.9247 38.6242 21.277 38.6242 15.5651Z" fill="#262D5A"/>
<path d="M62.45 0.413086C62.799 0.413086 63.0803 0.697369 63.0803 1.04735V29.9116C63.0803 30.2628 62.799 30.5459 62.45 30.5459H58.223C57.8752 30.5459 57.5927 30.2616 57.5927 29.9116V22.4737L55.2554 30.0992C55.1747 30.3643 54.9314 30.5459 54.656 30.5471H54.6524C54.3782 30.5471 54.136 30.3691 54.0518 30.1051L51.5887 22.3411V29.9116C51.5887 30.2628 51.3073 30.5459 50.9584 30.5459H46.7729C46.4251 30.5459 46.1426 30.2616 46.1426 29.9116V1.04735C46.1426 0.697369 46.4251 0.413086 46.7729 0.413086H51.1637C51.464 0.413086 51.7228 0.626896 51.7822 0.923123L54.6405 15.375L57.398 0.927901C57.455 0.629284 57.7149 0.413086 58.0164 0.413086H62.4488H62.45Z" fill="#262D5A"/>
<path d="M79.345 5.52682C79.3723 5.96758 79.3866 6.43342 79.3866 6.8909V13.2705C79.3866 14.2643 79.2097 15.165 78.8595 15.9473C78.5082 16.7309 78.0191 17.401 77.4066 17.9397C76.7965 18.476 76.0676 18.8857 75.2379 19.1593C74.4248 19.4268 73.5381 19.5618 72.6003 19.5618H71.0145V29.9119C71.0145 30.263 70.7331 30.5461 70.3841 30.5461H66.1987C65.8509 30.5461 65.5684 30.2618 65.5684 29.9119V1.04637C65.5684 0.696393 65.8509 0.412109 66.1987 0.412109H72.6003C73.4099 0.412109 74.2088 0.5005 74.9756 0.676087C75.7661 0.856451 76.4819 1.1479 77.1027 1.54327C77.7402 1.95058 78.2684 2.48212 78.672 3.12355C79.0863 3.78289 79.313 4.59155 79.3438 5.52682H79.345ZM73.8977 13.2705V5.71435C73.8977 5.63312 73.8894 5.62835 73.8526 5.60804C73.8384 5.59968 73.8242 5.59012 73.8111 5.58176C73.7078 5.51248 73.5796 5.45873 73.4312 5.42051C73.2639 5.37273 73.1179 5.34526 72.9814 5.33451C72.8259 5.32256 72.6977 5.3154 72.6003 5.3154H71.0145V14.6179H72.6003C73.0039 14.6179 73.3149 14.5032 73.5499 14.2667C73.785 14.0302 73.8989 13.7041 73.8989 13.2705H73.8977Z" fill="#262D5A"/>
<path d="M96.6995 29.8328C96.7221 30.0144 96.6663 30.1947 96.5464 30.3321C96.4265 30.4683 96.2544 30.5471 96.0727 30.5471H91.8457C91.5217 30.5471 91.2498 30.2998 91.2178 29.9749L90.6991 24.601H85.3052L83.7348 30.0884C83.6576 30.3608 83.4107 30.5471 83.1294 30.5471H78.9843C78.7848 30.5471 78.5985 30.4527 78.4786 30.2915C78.3587 30.1314 78.3231 29.9224 78.3801 29.7313L86.954 0.865789C87.0335 0.597034 87.2792 0.413086 87.5582 0.413086H92.463C92.7811 0.413086 93.0482 0.650785 93.0886 0.967319L96.6995 29.8328ZM90.2076 19.6966L89.3233 10.5649L86.7094 19.6966H90.2076Z" fill="#262D5A"/>
<path d="M117.214 1.04762V4.68119C117.214 5.03117 116.932 5.31545 116.584 5.31545C112.073 5.31545 111.205 10.2223 110.2 15.902C108.983 22.7798 107.603 30.5772 98.9018 30.5772C98.554 30.5772 98.2715 30.2929 98.2715 29.943V26.1374C98.2715 25.7874 98.554 25.5031 98.9018 25.5031C103.348 25.5031 104.157 20.705 105.091 15.1483C106.253 8.24189 107.571 0.414551 116.584 0.414551C116.933 0.414551 117.214 0.698834 117.214 1.04881V1.04762Z" fill="#262D5A"/>
<path d="M129.999 1.04762V4.68119C129.999 5.03117 129.717 5.31545 129.369 5.31545C124.858 5.31545 123.991 10.2223 122.985 15.902C121.768 22.7798 120.388 30.5772 111.687 30.5772C111.339 30.5772 111.057 30.2929 111.057 29.943V26.1374C111.057 25.7874 111.339 25.5031 111.687 25.5031C116.134 25.5031 116.942 20.705 117.876 15.1483C119.038 8.24189 120.356 0.414551 129.369 0.414551C129.718 0.414551 129.999 0.698834 129.999 1.04881V1.04762Z" fill="#262D5A"/>
<path d="M26.4272 14.5293C27.7365 15.1779 29.047 15.8277 30.3563 16.4763C28.438 18.661 26.5198 20.8468 24.6016 23.0315" fill="#262D5A"/>
<path d="M30.3509 16.4739C29.0416 15.8253 27.7312 15.1755 26.4219 14.5269C28.3401 12.3422 30.2584 10.1564 32.1766 7.97168" fill="#262D5A"/>
</g>
<defs>
<clipPath id="clip0_300_1908">
<rect width="130" height="31" fill="white"/>
</clipPath>
</defs>
</svg>
