<svg width="130" height="31" viewBox="0 0 130 31" fill="none" xmlns="http://www.w3.org/2000/svg">
<g clip-path="url(#clip0_1_2)">
<path d="M8.59054 7.71028C8.24274 7.71028 7.96022 7.426 7.96022 7.07602V5.34166C7.96022 5.28671 7.94836 5.2676 7.94242 5.26043C7.91274 5.21624 7.89494 5.20549 7.89494 5.20549C7.85695 5.18638 7.82134 5.16249 7.78811 5.13621C7.77386 5.12426 7.6884 5.06454 7.44031 5.01318C7.23139 4.96182 7.05927 4.93315 6.90258 4.9212C6.73402 4.90926 6.61176 4.90209 6.53816 4.90209H6.23072C6.14882 4.90209 6.05742 4.92001 5.9577 4.95345C5.84494 4.99168 5.7203 5.02034 5.5921 5.03946C5.55055 5.07768 5.50189 5.1171 5.44728 5.16129C5.44491 8.58463 5.45203 11.9447 5.46627 15.2713C5.47933 18.617 5.48764 21.9973 5.48764 25.4123C5.48764 25.6034 5.54699 25.6631 5.56836 25.6846C5.71436 25.8315 5.80339 25.8722 5.83544 25.8829C5.85325 25.8889 5.86986 25.8948 5.88648 25.902C6.02655 25.9629 6.16544 26.0035 6.29957 26.0227C6.46101 26.0454 6.59751 26.0573 6.70435 26.0573C7.13643 26.0573 7.45099 25.9785 7.6148 25.8303C7.80116 25.6607 7.91868 25.4433 7.97447 25.1638C7.97803 25.1471 7.98159 25.1304 7.98634 25.1137C8.02551 24.9787 8.0445 24.8425 8.0445 24.7099V24.188C8.0172 24.016 8.00415 23.7986 8.00415 23.5119C8.00415 23.1607 8.28666 22.8776 8.63446 22.8776H12.8199C13.0087 22.8776 13.1879 22.9624 13.3066 23.1094C13.4265 23.2563 13.474 23.4498 13.4372 23.6361C13.4182 23.7317 13.4087 23.8356 13.4087 23.9443V24.4185C13.4087 26.4383 12.7748 28.0533 11.5249 29.219C10.288 30.3729 8.66651 30.9582 6.70553 30.9582C4.74456 30.9582 3.16581 30.398 1.91824 29.2931C0.644557 28.1691 0 26.5853 0 24.5857C0 21.4467 0.00593515 18.3351 0.0201795 15.2498C0.0332368 12.168 0.0415461 9.05764 0.0415461 5.91978C0.0415461 4.94509 0.221975 4.0803 0.576897 3.34929C0.930632 2.62186 1.43037 1.99357 2.06187 1.48233C2.6815 0.980657 3.40203 0.602011 4.20327 0.357146C4.98434 0.119447 5.82594 0 6.70435 0C7.58275 0 8.4754 0.127808 9.27308 0.381035C10.0862 0.63904 10.8138 1.03202 11.4358 1.55042C12.0673 2.07837 12.5659 2.73652 12.9185 3.50815C13.2698 4.27858 13.4479 5.17324 13.4479 6.16823V7.07722C13.4479 7.4272 13.1654 7.71148 12.8176 7.71148H8.58935L8.59054 7.71028Z" fill="white"/>
<path d="M43.6673 15.5651C43.6673 24.0756 36.7861 31 28.3296 31C19.8732 31 12.9908 24.0756 12.9908 15.5651C12.9908 7.05448 19.8709 0.131348 28.3285 0.131348C36.7861 0.131348 43.6661 7.05567 43.6661 15.5651H43.6673ZM38.6248 15.5651C38.6248 9.85311 34.006 5.20544 28.3296 5.20544C22.6533 5.20544 18.0345 9.85311 18.0345 15.5651C18.0345 21.277 22.6533 25.9247 28.3296 25.9247C34.006 25.9247 38.6248 21.277 38.6248 15.5651Z" fill="white"/>
<path d="M62.4496 0.41333C62.7986 0.41333 63.0799 0.697613 63.0799 1.04759V29.9119C63.0799 30.2631 62.7986 30.5461 62.4496 30.5461H58.2226C57.8748 30.5461 57.5923 30.2619 57.5923 29.9119V22.4739L55.255 30.0994C55.1743 30.3646 54.931 30.5461 54.6556 30.5473H54.652C54.3778 30.5473 54.1357 30.3694 54.0514 30.1054L51.5883 22.3414V29.9119C51.5883 30.2631 51.307 30.5461 50.958 30.5461H46.7725C46.4247 30.5461 46.1422 30.2619 46.1422 29.9119V1.04759C46.1422 0.697613 46.4247 0.41333 46.7725 0.41333H51.1633C51.4637 0.41333 51.7224 0.62714 51.7818 0.923367L54.6402 15.3752L57.3976 0.928145C57.4546 0.629529 57.7146 0.41333 58.0161 0.41333H62.4484H62.4496Z" fill="white"/>
<path d="M79.3447 5.52682C79.372 5.96758 79.3862 6.43342 79.3862 6.8909V13.2705C79.3862 14.2643 79.2093 15.165 78.8592 15.9473C78.5078 16.7309 78.0188 17.401 77.4062 17.9397C76.7961 18.476 76.0673 18.8857 75.2375 19.1593C74.4244 19.4268 73.5377 19.5618 72.6 19.5618H71.0141V29.9119C71.0141 30.263 70.7328 30.5461 70.3838 30.5461H66.1983C65.8505 30.5461 65.568 30.2618 65.568 29.9119V1.04637C65.568 0.696393 65.8505 0.412109 66.1983 0.412109H72.6C73.4095 0.412109 74.2084 0.5005 74.9752 0.676087C75.7658 0.856451 76.4815 1.1479 77.1024 1.54327C77.7398 1.95058 78.268 2.48212 78.6716 3.12355C79.0859 3.78289 79.3126 4.59155 79.3435 5.52682H79.3447ZM73.8974 13.2705V5.71435C73.8974 5.63312 73.8891 5.62835 73.8523 5.60804C73.838 5.59968 73.8238 5.59012 73.8107 5.58176C73.7075 5.51248 73.5793 5.45873 73.4309 5.42051C73.2635 5.37273 73.1175 5.34526 72.981 5.33451C72.8255 5.32256 72.6973 5.3154 72.6 5.3154H71.0141V14.6179H72.6C73.0035 14.6179 73.3146 14.5032 73.5496 14.2667C73.7846 14.0302 73.8986 13.7041 73.8986 13.2705H73.8974Z" fill="white"/>
<path d="M96.699 29.833C96.7216 30.0146 96.6658 30.195 96.5459 30.3323C96.426 30.4685 96.2539 30.5473 96.0723 30.5473H91.8452C91.5212 30.5473 91.2494 30.3001 91.2173 29.9752L90.6986 24.6013H85.3047L83.7343 30.0887C83.6571 30.361 83.4102 30.5473 83.1289 30.5473H78.9838C78.7844 30.5473 78.598 30.453 78.4781 30.2917C78.3582 30.1317 78.3226 29.9226 78.3796 29.7315L86.9535 0.866033C87.033 0.597278 87.2787 0.41333 87.5577 0.41333H92.4625C92.7806 0.41333 93.0477 0.651029 93.0881 0.967563L96.699 29.833ZM90.2071 19.6968L89.3228 10.5651L86.709 19.6968H90.2071Z" fill="white"/>
<path d="M117.214 1.0475V4.68106C117.214 5.03104 116.932 5.31533 116.584 5.31533C112.073 5.31533 111.206 10.2222 110.2 15.9019C108.984 22.7796 107.603 30.5771 98.9022 30.5771C98.5544 30.5771 98.2719 30.2928 98.2719 29.9428V26.1373C98.2719 25.7873 98.5544 25.503 98.9022 25.503C103.349 25.503 104.157 20.7048 105.091 15.1482C106.253 8.24177 107.571 0.414429 116.584 0.414429C116.933 0.414429 117.214 0.698712 117.214 1.04869V1.0475Z" fill="white"/>
<path d="M130 1.0475V4.68106C130 5.03104 129.717 5.31533 129.37 5.31533C124.859 5.31533 123.991 10.2222 122.986 15.9019C121.769 22.7796 120.389 30.5771 111.688 30.5771C111.34 30.5771 111.057 30.2928 111.057 29.9428V26.1373C111.057 25.7873 111.34 25.503 111.688 25.503C116.134 25.503 116.943 20.7048 117.877 15.1482C119.039 8.24177 120.357 0.414429 129.37 0.414429C129.719 0.414429 130 0.698712 130 1.04869V1.0475Z" fill="white"/>
<path d="M26.4268 14.5295C27.7361 15.1781 29.0466 15.8279 30.3559 16.4765C28.4377 18.6612 26.5194 20.8471 24.6012 23.0318" fill="white"/>
<path d="M30.35 16.4741C29.0407 15.8255 27.7302 15.1758 26.4209 14.5272C28.3391 12.3425 30.2574 10.1566 32.1756 7.97192" fill="white"/>
</g>
<defs>
<clipPath id="clip0_1_2">
<rect width="130" height="31" fill="white"/>
</clipPath>
</defs>
</svg>
