<?xml version="1.0" encoding="utf-8"?>
<!-- Generator: Adobe Illustrator 27.6.1, SVG Export Plug-In . SVG Version: 6.00 Build 0)  -->
<svg version="1.1" id="Шар_1" xmlns="http://www.w3.org/2000/svg" xmlns:xlink="http://www.w3.org/1999/xlink" x="0px" y="0px"
	 viewBox="0 0 182.21 170.41" style="enable-background:new 0 0 182.21 170.41;" xml:space="preserve">
<style type="text/css">
	.st0{fill:#262B57;}
</style>
<g>
	<path class="st0" d="M144.49,85.2c0,27.42-22.3,49.72-49.72,49.72c-27.42,0-49.72-22.3-49.72-49.72c0-27.41,22.3-49.72,49.72-49.72
		C122.19,35.49,144.49,57.79,144.49,85.2z M128.15,85.2c0-18.4-14.97-33.37-33.37-33.37c-18.4,0-33.37,14.97-33.37,33.37
		c0,18.4,14.97,33.37,33.37,33.37C113.17,118.58,128.15,103.61,128.15,85.2z"/>
	<path class="st0" d="M88.61,81.87c4.25,2.09,8.49,4.18,12.74,6.27c-6.22,7.04-12.44,14.08-18.66,21.12"/>
	<path class="st0" d="M101.33,88.13c-4.25-2.09-8.49-4.18-12.74-6.27c6.22-7.04,12.44-14.08,18.66-21.12"/>
</g>
</svg>
